<svg width="16" height="16" viewBox="0 0 16 16" fill="none" xmlns="http://www.w3.org/2000/svg">
<g clip-path="url(#clip0_1129_39777)">
<path d="M4.9027 2.17856C5.17227 2.49306 5.13586 2.96653 4.82137 3.2361L3.10301 4.70903L4.8636 6.46968C5.15649 6.76258 5.15649 7.23745 4.86359 7.53034C4.57069 7.82323 4.09582 7.82322 3.80293 7.53032L1.46966 5.19699C1.32195 5.04927 1.24254 4.84663 1.25055 4.63788C1.25857 4.42913 1.35329 4.23319 1.5119 4.09723L3.84517 2.09723C4.15966 1.82766 4.63313 1.86407 4.9027 2.17856Z" fill="#E46F26"/>
<path d="M1.25 4.66667C1.25 4.25245 1.58579 3.91667 2 3.91667H9.6646C12.3617 3.91667 14.6411 6.10833 14.7462 8.80411C14.8574 11.6537 12.5137 14.0833 9.6646 14.0833H3.99947C3.58525 14.0833 3.24947 13.7475 3.24947 13.3333C3.24947 12.9191 3.58525 12.5833 3.99947 12.5833H9.6646C11.6644 12.5833 13.3252 10.8594 13.2474 8.86256C13.1736 6.97194 11.5561 5.41667 9.6646 5.41667H2C1.58579 5.41667 1.25 5.08088 1.25 4.66667Z" fill="#E46F26"/>
</g>
<defs>
<clipPath id="clip0_1129_39777">
<rect width="16" height="16" fill="white"/>
</clipPath>
</defs>
</svg>
