<svg width="16" height="16" viewBox="0 0 16 16" fill="none" xmlns="http://www.w3.org/2000/svg">
<g clip-path="url(#clip0_1129_39756)">
<path d="M1.54817 1.7859C1.6309 1.61132 1.80681 1.50002 2.00001 1.50002H14C14.1932 1.50002 14.3691 1.61132 14.4518 1.7859C14.5346 1.96048 14.5093 2.16711 14.387 2.31663L10 7.6785V14.5C10 14.6733 9.91028 14.8342 9.76287 14.9253C9.61546 15.0164 9.43139 15.0247 9.2764 14.9472L6.2764 13.4472C6.10701 13.3625 6.00001 13.1894 6.00001 13V7.6785L1.61303 2.31663C1.49069 2.16711 1.46544 1.96048 1.54817 1.7859ZM3.05513 2.50002L6.88698 7.1834C6.96007 7.27273 7.00001 7.38459 7.00001 7.50002V12.691L9.00001 13.691V7.50002C9.00001 7.38459 9.03994 7.27273 9.11303 7.1834L12.9449 2.50002H3.05513Z" fill="black"/>
</g>
<defs>
<clipPath id="clip0_1129_39756">
<rect width="16" height="16" fill="white"/>
</clipPath>
</defs>
</svg>
