<svg width="20" height="20" viewBox="0 0 20 20" fill="none" xmlns="http://www.w3.org/2000/svg">
<g clip-path="url(#clip0_1129_39861)">
<path d="M1.5 5.5C1.5 5.22386 1.72386 5 2 5H18C18.2761 5 18.5 5.22386 18.5 5.5V10C18.5 10.2761 18.2761 10.5 18 10.5C17.7239 10.5 17.5 10.2761 17.5 10V6H2.5V16H12C12.2761 16 12.5 16.2239 12.5 16.5C12.5 16.7761 12.2761 17 12 17H2C1.72386 17 1.5 16.7761 1.5 16.5V5.5Z" fill="white"/>
<path d="M2 5.5H9.5L7.5 3.5H2V5.5Z" fill="white"/>
<path d="M1.5 5.5C1.5 5.77614 1.72386 6 2 6H9.5C9.70223 6 9.88455 5.87818 9.96194 5.69134C10.0393 5.5045 9.99655 5.28945 9.85355 5.14645L7.85355 3.14645C7.75979 3.05268 7.63261 3 7.5 3H2C1.72386 3 1.5 3.22386 1.5 3.5V5.5ZM2.5 5V4H7.29289L8.29289 5H2.5Z" fill="white"/>
<path d="M13.5 14C13.5 13.7239 13.7239 13.5 14 13.5H18C18.2761 13.5 18.5 13.7239 18.5 14C18.5 14.2761 18.2761 14.5 18 14.5H14C13.7239 14.5 13.5 14.2761 13.5 14Z" fill="white"/>
<path d="M16 11.5C16.2761 11.5 16.5 11.7239 16.5 12L16.5 16C16.5 16.2761 16.2761 16.5 16 16.5C15.7239 16.5 15.5 16.2761 15.5 16L15.5 12C15.5 11.7239 15.7239 11.5 16 11.5Z" fill="white"/>
</g>
<defs>
<clipPath id="clip0_1129_39861">
<rect width="20" height="20" fill="white"/>
</clipPath>
</defs>
</svg>
