<svg width="20" height="20" viewBox="0 0 20 20" fill="none" xmlns="http://www.w3.org/2000/svg">
<g clip-path="url(#clip0_1129_39795)">
<path d="M1.5 4C1.5 3.72386 1.72386 3.5 2 3.5H18C18.2761 3.5 18.5 3.72386 18.5 4V10.5C18.5 10.7761 18.2761 11 18 11C17.7239 11 17.5 10.7761 17.5 10.5V4.5H2.5V15.5H12C12.2761 15.5 12.5 15.7239 12.5 16C12.5 16.2761 12.2761 16.5 12 16.5H2C1.72386 16.5 1.5 16.2761 1.5 16V4Z" fill="#3D3D3D"/>
<path d="M18.3333 8.83333H1.66666V7.83333H18.3333V8.83333Z" fill="#3D3D3D"/>
<path d="M3.5 6C3.5 5.72386 3.72386 5.5 4 5.5H5.66667C5.94281 5.5 6.16667 5.72386 6.16667 6C6.16667 6.27614 5.94281 6.5 5.66667 6.5H4C3.72386 6.5 3.5 6.27614 3.5 6Z" fill="#3D3D3D"/>
<path d="M13.5 14C13.5 13.7239 13.7239 13.5 14 13.5H18C18.2761 13.5 18.5 13.7239 18.5 14C18.5 14.2761 18.2761 14.5 18 14.5H14C13.7239 14.5 13.5 14.2761 13.5 14Z" fill="#3D3D3D"/>
<path d="M16 11.5C16.2761 11.5 16.5 11.7239 16.5 12L16.5 16C16.5 16.2761 16.2761 16.5 16 16.5C15.7239 16.5 15.5 16.2761 15.5 16L15.5 12C15.5 11.7239 15.7239 11.5 16 11.5Z" fill="#3D3D3D"/>
</g>
<defs>
<clipPath id="clip0_1129_39795">
<rect width="20" height="20" fill="white"/>
</clipPath>
</defs>
</svg>
