<svg width="16" height="16" viewBox="0 0 16 16" fill="none" xmlns="http://www.w3.org/2000/svg">
<g clip-path="url(#clip0_1129_39745)">
<path d="M1.5 2.66667C1.5 2.02233 2.02233 1.5 2.66667 1.5H6C6.64435 1.5 7.16667 2.02234 7.16667 2.66667V6C7.16667 6.64434 6.64434 7.16667 6 7.16667H2.66667C2.02234 7.16667 1.5 6.64435 1.5 6V2.66667ZM2.66667 2.5C2.57462 2.5 2.5 2.57462 2.5 2.66667V6C2.5 6.09205 2.57461 6.16667 2.66667 6.16667H6C6.09206 6.16667 6.16667 6.09206 6.16667 6V2.66667C6.16667 2.57461 6.09205 2.5 6 2.5H2.66667Z" fill="black"/>
<path d="M1.5 10C1.5 9.35565 2.02234 8.83333 2.66667 8.83333H6C6.64434 8.83333 7.16667 9.35566 7.16667 10V13.3333C7.16667 13.9777 6.64434 14.5 6 14.5H2.66667C2.02234 14.5 1.5 13.9777 1.5 13.3333V10ZM2.66667 9.83333C2.57461 9.83333 2.5 9.90795 2.5 10V13.3333C2.5 13.4254 2.57461 13.5 2.66667 13.5H6C6.09206 13.5 6.16667 13.4254 6.16667 13.3333V10C6.16667 9.90794 6.09206 9.83333 6 9.83333H2.66667Z" fill="black"/>
<path d="M8.83333 2.66667C8.83333 2.02234 9.35565 1.5 9.99999 1.5H13.3333C13.9777 1.5 14.5 2.02234 14.5 2.66667V6C14.5 6.64434 13.9777 7.16667 13.3333 7.16667H9.99999C9.35565 7.16667 8.83333 6.64434 8.83333 6V2.66667ZM9.99999 2.5C9.90794 2.5 9.83333 2.57461 9.83333 2.66667V6C9.83333 6.09206 9.90794 6.16667 9.99999 6.16667H13.3333C13.4254 6.16667 13.5 6.09206 13.5 6V2.66667C13.5 2.57461 13.4254 2.5 13.3333 2.5H9.99999Z" fill="black"/>
<path d="M8.83333 10C8.83333 9.35566 9.35565 8.83333 9.99999 8.83333H13.3333C13.9777 8.83333 14.5 9.35566 14.5 10V13.3333C14.5 13.9777 13.9777 14.5 13.3333 14.5H9.99999C9.35565 14.5 8.83333 13.9777 8.83333 13.3333V10ZM9.99999 9.83333C9.90794 9.83333 9.83333 9.90794 9.83333 10V13.3333C9.83333 13.4254 9.90794 13.5 9.99999 13.5H13.3333C13.4254 13.5 13.5 13.4254 13.5 13.3333V10C13.5 9.90794 13.4254 9.83333 13.3333 9.83333H9.99999Z" fill="black"/>
</g>
<defs>
<clipPath id="clip0_1129_39745">
<rect width="16" height="16" fill="white"/>
</clipPath>
</defs>
</svg>
