<?xml version="1.0" standalone="no"?><!DOCTYPE svg PUBLIC "-//W3C//DTD SVG 1.1//EN" "http://www.w3.org/Graphics/SVG/1.1/DTD/svg11.dtd"><svg t="1687528682922" class="icon" viewBox="0 0 1024 1024" version="1.1" xmlns="http://www.w3.org/2000/svg" p-id="10459" xmlns:xlink="http://www.w3.org/1999/xlink" width="200" height="200"><path d="M512 102.4C285.013333 102.4 102.4 285.013333 102.4 512s182.613333 409.6 409.6 409.6 409.6-182.613333 409.6-409.6S738.986667 102.4 512 102.4zM732.16 561.493333 542.72 752.64c-17.066667 17.066667-44.373333 17.066667-61.44 0L291.84 561.493333c-17.066667-17.066667-17.066667-44.373333 0-61.44 17.066667-17.066667 44.373333-17.066667 61.44 0l116.053333 116.053333L469.333333 302.08c0-23.893333 18.773333-42.666667 42.666667-42.666667s42.666667 18.773333 42.666667 42.666667l0 314.026667 116.053333-116.053333c17.066667-17.066667 44.373333-17.066667 61.44 0C749.226667 517.12 749.226667 544.426667 732.16 561.493333z" p-id="10460" fill="#F69F4B"></path></svg>