<svg width="20" height="20" viewBox="0 0 20 20" fill="none" xmlns="http://www.w3.org/2000/svg">
<g clip-path="url(#clip0_1129_39872)">
<path d="M2.5 3C2.5 2.72386 2.72386 2.5 3 2.5H9C9.27614 2.5 9.5 2.72386 9.5 3V9C9.5 9.27614 9.27614 9.5 9 9.5H3C2.72386 9.5 2.5 9.27614 2.5 9V3ZM3.5 3.5V8.5H8.5V3.5H3.5Z" fill="white"/>
<path d="M2.5 11C2.5 10.7239 2.72386 10.5 3 10.5H9C9.27614 10.5 9.5 10.7239 9.5 11V17C9.5 17.2761 9.27614 17.5 9 17.5H3C2.72386 17.5 2.5 17.2761 2.5 17V11ZM3.5 11.5V16.5H8.5V11.5H3.5Z" fill="white"/>
<path d="M10.5 11C10.5 10.7239 10.7239 10.5 11 10.5H17C17.2761 10.5 17.5 10.7239 17.5 11V17C17.5 17.2761 17.2761 17.5 17 17.5H11C10.7239 17.5 10.5 17.2761 10.5 17V11ZM11.5 11.5V16.5H16.5V11.5H11.5Z" fill="white"/>
<path d="M13.6464 2.14645C13.8417 1.95118 14.1583 1.95118 14.3536 2.14645L17.5355 5.32843C17.7308 5.52369 17.7308 5.84027 17.5355 6.03553L14.3536 9.21752C14.1583 9.41278 13.8417 9.41278 13.6464 9.21752L10.4645 6.03553C10.2692 5.84027 10.2692 5.52369 10.4645 5.32843L13.6464 2.14645ZM14 3.20711L11.5251 5.68198L14 8.15685L16.4749 5.68198L14 3.20711Z" fill="white"/>
</g>
<defs>
<clipPath id="clip0_1129_39872">
<rect width="20" height="20" fill="white"/>
</clipPath>
</defs>
</svg>
