<svg width="20" height="20" viewBox="0 0 20 20" fill="none" xmlns="http://www.w3.org/2000/svg">
<g clip-path="url(#clip0_1129_39850)">
<path d="M17 16.5L9.5 16.5C9.22386 16.5 9 16.2761 9 16C9 15.7239 9.22386 15.5 9.5 15.5L17 15.5C17.2761 15.5 17.5 15.7239 17.5 16C17.5 16.2761 17.2761 16.5 17 16.5Z" fill="white"/>
<path d="M17 12L12.5 12C12.2239 12 12 11.7761 12 11.5C12 11.2239 12.2239 11 12.5 11L17 11C17.2761 11 17.5 11.2239 17.5 11.5C17.5 11.7761 17.2761 12 17 12Z" fill="white"/>
<path d="M14.5 7C14.5 6.72386 14.7239 6.5 15 6.5L17 6.5C17.2761 6.5 17.5 6.72386 17.5 7C17.5 7.27614 17.2761 7.5 17 7.5L15 7.5C14.7239 7.5 14.5 7.27614 14.5 7Z" fill="white"/>
<path d="M8.56699 2.75C8.70506 2.51085 9.01085 2.42892 9.25 2.56699L12.7141 4.56699C12.9532 4.70506 13.0352 5.01085 12.8971 5.25L6.77211 15.8588C6.70002 15.9837 6.57754 16.0713 6.4361 16.0993L3.82905 16.6149C3.58331 16.6634 3.33955 16.5227 3.25876 16.2856L2.40171 13.7701C2.35522 13.6336 2.3699 13.4837 2.44199 13.3588L8.56699 2.75ZM9.18301 3.68301L3.42145 13.6623L4.06424 15.549L6.01953 15.1623L11.7811 5.18301L9.18301 3.68301Z" fill="white"/>
</g>
<defs>
<clipPath id="clip0_1129_39850">
<rect width="20" height="20" fill="white"/>
</clipPath>
</defs>
</svg>
