<svg width="32" height="33" viewBox="0 0 32 33" fill="none" xmlns="http://www.w3.org/2000/svg">
<g id="icon_&#228;&#186;&#186;&#229;&#145;&#152;&#231;&#174;&#161;&#231;&#144;&#134;" clip-path="url(#clip0_671_8375)">
<path id="Vector (Stroke)" d="M2.66699 16.5C2.66699 23.8638 8.63653 29.8334 16.0003 29.8334C23.3641 29.8334 29.3337 23.8638 29.3337 16.5C29.3337 9.13622 23.3641 3.16669 16.0003 3.16669C8.63653 3.16669 2.66699 9.13622 2.66699 16.5Z" stroke="#F8A14C" stroke-linejoin="round"/>
<g id="Frame 108" clip-path="url(#clip1_671_8375)">
<g id="Frame">
<path id="Vector" d="M9.66823 22.577C9.66823 22.7185 9.78635 22.8333 9.93206 22.8333L22.0678 22.8333C22.2135 22.8333 22.3316 22.7186 22.3316 22.5771V22.271C22.3377 22.1788 22.35 21.7185 22.0466 21.2096C21.8553 20.8887 21.5776 20.6115 21.2213 20.3857C20.7902 20.1126 20.2418 19.9146 19.5786 19.7955C19.5737 19.7948 19.0819 19.7296 18.578 19.601C17.7007 19.3769 17.624 19.1785 17.6235 19.1766C17.6183 19.157 17.6108 19.1382 17.6013 19.1205C17.5941 19.0835 17.5764 18.9442 17.6103 18.5712C17.6963 17.6236 18.2046 17.0636 18.613 16.6137C18.7418 16.4718 18.8634 16.3378 18.9571 16.2063C19.3612 15.6393 19.3987 14.9946 19.4004 14.9546C19.4004 14.8737 19.3911 14.8071 19.3712 14.7454C19.3316 14.6219 19.2569 14.545 19.2024 14.4888L19.2021 14.4884C19.1883 14.4743 19.1754 14.4609 19.1648 14.4486C19.1607 14.4439 19.15 14.4315 19.1598 14.3676C19.1956 14.1327 19.2172 13.9359 19.2275 13.7485C19.2459 13.4146 19.2603 12.9152 19.1741 12.4291C19.1635 12.3461 19.1452 12.2585 19.1168 12.154C19.0258 11.8193 18.8796 11.5332 18.6765 11.297C18.6415 11.259 17.7922 10.3642 15.3266 10.1806C14.9857 10.1552 14.6486 10.1689 14.3169 10.1859C14.2369 10.1898 14.1274 10.1953 14.0249 10.2218C13.7704 10.2877 13.7024 10.4491 13.6846 10.5394C13.655 10.689 13.707 10.8053 13.7414 10.8824V10.8824V10.8824C13.7464 10.8935 13.7525 10.9073 13.7418 10.9433C13.6845 11.0319 13.5945 11.1118 13.5027 11.1875C13.4762 11.2101 12.8579 11.7432 12.8239 12.4396C12.7322 12.9692 12.7392 13.7944 12.8476 14.3648C12.8539 14.3963 12.8632 14.4429 12.8481 14.4744C12.7315 14.5789 12.5994 14.6973 12.5997 14.9674C12.6011 14.9946 12.6386 15.6393 13.0427 16.2063C13.1363 16.3377 13.2579 16.4716 13.3866 16.6134L13.3869 16.6137V16.6137C13.7953 17.0637 14.3035 17.6236 14.3896 18.5711C14.4235 18.9442 14.4057 19.0835 14.3986 19.1204C14.389 19.1381 14.3815 19.157 14.3764 19.1766C14.3759 19.1785 14.2995 19.3762 13.4261 19.5998C12.9222 19.7289 12.4262 19.7948 12.4114 19.7969C11.7668 19.9057 11.2218 20.0987 10.7915 20.3705C10.4364 20.5948 10.1582 20.8725 9.96462 21.1959C9.65538 21.7126 9.66374 22.1832 9.66823 22.2691V22.577Z" stroke="#F69F4A" stroke-linejoin="round"/>
</g>
</g>
</g>
<defs>
<clipPath id="clip0_671_8375">
<rect width="32" height="32" fill="white" transform="translate(0 0.5)"/>
</clipPath>
<clipPath id="clip1_671_8375">
<rect width="16" height="16" fill="white" transform="translate(8 8.5)"/>
</clipPath>
</defs>
</svg>
