<svg width="32" height="32" viewBox="0 0 32 32" fill="none" xmlns="http://www.w3.org/2000/svg">
<g id="icon_add" clip-path="url(#clip0_685_8234)">
<path id="Vector (Stroke)" d="M2.66699 16C2.66699 23.3638 8.63653 29.3333 16.0003 29.3333C23.3641 29.3333 29.3337 23.3638 29.3337 16C29.3337 8.63621 23.3641 2.66667 16.0003 2.66667C8.63653 2.66667 2.66699 8.63621 2.66699 16Z" fill="#F6891F" fill-opacity="0.8"/>
<path id="Vector (Stroke)_2" d="M22.3333 16C22.3333 16.5523 21.8856 17 21.3333 17H10.6667C10.1144 17 9.66667 16.5523 9.66667 16C9.66667 15.4477 10.1144 15 10.6667 15H21.3333C21.8856 15 22.3333 15.4477 22.3333 16Z" fill="white"/>
<path id="Vector (Stroke)_3" d="M16 9.66678C16.5523 9.66678 17 10.1145 17 10.6668L17 21.3334C17 21.8857 16.5523 22.3334 16 22.3334C15.4477 22.3334 15 21.8857 15 21.3334L15 10.6668C15 10.1145 15.4477 9.66678 16 9.66678Z" fill="white"/>
</g>
<defs>
<clipPath id="clip0_685_8234">
<rect width="32" height="32" fill="white"/>
</clipPath>
</defs>
</svg>
