<svg width="16" height="16" viewBox="0 0 16 16" fill="none" xmlns="http://www.w3.org/2000/svg">
<g clip-path="url(#clip0_1129_39764)">
<path d="M0.5 8C0.5 6.89545 1.39543 6 2.5 6C3.60455 6 4.5 6.89545 4.5 8C4.5 9.10455 3.60455 10 2.5 10C1.39543 10 0.5 9.10455 0.5 8ZM2.5 7C1.94772 7 1.5 7.44773 1.5 8C1.5 8.55227 1.94772 9 2.5 9C3.05227 9 3.5 8.55227 3.5 8C3.5 7.44773 3.05227 7 2.5 7Z" fill="black"/>
<path d="M1.5 3C1.5 2.44772 1.94772 2 2.5 2C3.05228 2 3.5 2.44772 3.5 3C3.5 3.5523 3.05228 4 2.5 4C1.94772 4 1.5 3.5523 1.5 3Z" fill="black"/>
<path d="M1.5 13.5C1.5 12.9477 1.94772 12.5 2.5 12.5C3.05228 12.5 3.5 12.9477 3.5 13.5C3.5 14.0523 3.05228 14.5 2.5 14.5C1.94772 14.5 1.5 14.0523 1.5 13.5Z" fill="black"/>
<path d="M5.49968 8C5.49968 8.27614 5.72354 8.5 5.99968 8.5H14.9997C15.2758 8.5 15.4997 8.27614 15.4997 8C15.4997 7.72386 15.2758 7.5 14.9997 7.5H5.99968C5.72354 7.5 5.49968 7.72386 5.49968 8Z" fill="black"/>
<path d="M5.5 3C5.5 2.72386 5.72386 2.5 6 2.5H15C15.2761 2.5 15.5 2.72386 15.5 3C15.5 3.27614 15.2761 3.5 15 3.5H6C5.72386 3.5 5.5 3.27614 5.5 3Z" fill="black"/>
<path d="M5.5 13.5C5.5 13.2239 5.72386 13 6 13H15C15.2761 13 15.5 13.2239 15.5 13.5C15.5 13.7761 15.2761 14 15 14H6C5.72386 14 5.5 13.7761 5.5 13.5Z" fill="black"/>
</g>
<defs>
<clipPath id="clip0_1129_39764">
<rect width="16" height="16" fill="white"/>
</clipPath>
</defs>
</svg>
